<?xml version="1.0" encoding="UTF-8"?>
<!DOCTYPE svg PUBLIC "-//W3C//DTD SVG 1.1//EN" "http://www.w3.org/Graphics/SVG/1.1/DTD/svg11.dtd">
<!-- Creator: CorelDRAW X8 -->
<svg xmlns="http://www.w3.org/2000/svg" xml:space="preserve" width="1601px" height="1601px" version="1.1" style="shape-rendering:geometricPrecision; text-rendering:geometricPrecision; image-rendering:optimizeQuality; fill-rule:evenodd; clip-rule:evenodd"
viewBox="0 0 160100000 160100000"
 xmlns:xlink="http://www.w3.org/1999/xlink"
 xmlns:svg="http://www.w3.org/2000/svg">
 <defs>
  <style type="text/css">
   <![CDATA[
    .str1 {stroke:white;stroke-width:312520}
    .str0 {stroke:white;stroke-width:625040}
    .fil2 {fill:none}
    .fil0 {fill:black}
    .fil1 {fill:white}
   ]]>
  </style>
 </defs>
 <g id="Слой_x0020_1">
  <metadata id="CorelCorpID_0Corel-Layer"/>
  <g id="g2749">
   <g>
    <path id="path2751" class="fil0" d="M80061220 160093858c44077603,0 80032638,-35955035 80032638,-80032638 0,-44100043 -35955035,-80055078 -80032638,-80055078 -44100043,0 -80055078,35955035 -80055078,80055078 0,44077603 35955035,80032638 80055078,80032638z"/>
    <path id="1" class="fil1" d="M80061220 159468818c43733311,0 79407598,-35674287 79407598,-79407598 0,-21877698 -8917804,-41735119 -23301637,-56123086 -14383951,-14388085 -34236884,-23306952 -56105961,-23306952 -21877344,0 -41735001,8918867 -56123086,23306952 -14388085,14388085 -23306952,34245742 -23306952,56123086 0,43733311 35674405,79407598 79430038,79407598zm0 625040c44077603,0 80032638,-35955035 80032638,-80032638 0,-44100043 -35955035,-80055078 -80032638,-80055078 -44100043,0 -80055078,35955035 -80055078,80055078 0,44077603 35955035,80032638 80055078,80032638z"/>
   </g>
  </g>
  <g id="g2753">
   <path id="path2755" class="fil2 str0" d="M80061220 138808837c32355032,0 58747617,-26392585 58747617,-58747617 0,-32377472 -26392585,-58770057 -58747617,-58770057 -32377472,0 -58770057,26392585 -58770057,58770057 0,32355032 26392585,58747617 58770057,58747617z"/>
  </g>
  <g id="g2757">
   <polygon id="path2759" class="fil2 str0" points="45681187,33801175 79971220,138178837 111988811,31776173 25116166,97791238 135501275,96846237 "/>
  </g>
  <g id="g2821">
   <path id="path2823" class="fil2 str0" d="M76528776 72861213c1530002,1867561 2452443,4410005 2790003,7627567 517441,-3127562 1575001,-5715006 3420003,-7492566"/>
  </g>
  <g id="g2825">
   <path id="path2827" class="fil2 str0" d="M88453788 72613772c1057442,5917447 -3150003,6705007 -6682566,13095013"/>
  </g>
  <g id="g2829">
   <path id="path2831" class="fil2 str0" d="M76596217 86091226c-720001,-5175005 -9675009,-7155007 -7065007,-12532453"/>
  </g>
  <g id="g2833">
   <path id="path2835" class="fil2 str0" d="M65998766 79138779c-517560,7605007 9427450,2520002 7290007,9877450"/>
  </g>
  <g id="g2837">
   <path id="path2839" class="fil2 str0" d="M75741216 92953792c-990001,3172444 -1102442,6367447 270000,9585010"/>
  </g>
  <g id="g2841">
   <path id="path2843" class="fil2 str0" d="M81996222 92683792c1035001,3442444 900001,6727448 -225000,9855010"/>
  </g>
  <g id="g2845">
   <path id="path2847" class="fil2 str0" d="M83346224 91513791c1057560,45000 1462560,562441 1777561,1710001"/>
  </g>
  <g id="g2849">
   <path id="path2851" class="fil2 str0" d="M71511212 92256232c157559,-787441 877560,-1215001 2115002,-1282442"/>
  </g>
  <g id="g2853">
   <path id="path2855" class="fil2 str0" d="M113698813 89556230c-1980002,-2227443 -5107564,-2677444 -8527568,-2632444 -4477445,157441 -7875008,-1980002 -10687451,-5310005 360000,6030006 -1980002,10642451 -5557565,14602455 -652441,1035001 -630000,2812562 -1327442,5310006 -967560,1282560 -1867561,2655002 -2362561,4657563 247559,1980002 -67441,4387445 -765001,7065007 -787442,675001 -1800002,1192442 -3285003,1395002 -1800002,202441 -4387446,-45000 -6795007,-675001 -472442,-2317561 -517442,-4635005 -1710002,-6615007 -1192442,-1687560 -2002443,-3487562 -2227443,-5445005 -157559,-2092561 -337559,-4635005 -1350001,-6232565 -3555004,-4230004 -6030006,-8122449 -7425008,-12622454 -22559,5512447 -16740016,6165007 -19350019,6705007"/>
  </g>
  <g id="g2857">
   <path id="path2859" class="fil2 str0" d="M77361218 124026264c652560,-3847445 -2880003,-7132448 -2970003,-10035010 4252563,1372560 7177566,1552560 10012569,-562442 -562560,2632444 -3375004,6772448 -2677562,10372452"/>
  </g>
  <g id="g2861">
   <path id="path2863" class="fil2 str0" d="M51013751 42643743c12172453,10372451 21037462,19147460 20295020,26527467"/>
  </g>
  <g id="g2865">
   <path id="path2867" class="fil2 str0" d="M107511247 41383741c-12172452,10395011 -21037461,19147460 -20295019,26527468"/>
  </g>
  <g id="g2869">
   <path id="path2871" class="fil2 str0" d="M62826204 88138787c45000,0 225000,-247559 270000,-247559 -7987449,7920008 -18900019,9202568 -31027472,6727566 6727448,-2317561 10575011,-9922569 13185013,-10282569 11115011,-3982445 19260019,-8842450 19620020,-12555013 1732442,-12915012 -16695017,-24750024 -18225018,-36675036 2407443,2205002 4815004,4410005 7222448,6615007 112559,742560 1080001,1485001 2587561,1462560 765001,-315000 1350002,315001 1732443,1282442 1305001,270001 1620002,1057561 2115002,1732561 1282560,315001 1912561,1125001 2655003,1845002 112559,855001 787559,1282442 1552560,1642443 1215001,180000 1755002,585000 2205002,1012560 67441,1012442 1012442,1597442 2115002,2115002 1327443,472441 1305002,1260001 1552443,2002443 337559,922560 855001,1327560 1462560,1485001 1035001,225000 1395002,1035001 1642443,1912561 247559,517442 540001,945001 1305001,832442 1372561,720001 1012560,1462560 1192561,2205002 -112560,2565003 607441,2812562 1282442,3195003 1125001,202559 652559,2002561 360000,4500005 -157441,1080001 967560,540000 2857562,-405001 1080001,-270000 495000,-3352444 67441,-5377446 225000,-945001 832560,-1777561 1822561,-2475003 1057442,-1012560 1350001,-1800001 1642442,-2565002 112560,-1147560 765001,-1575002 1552561,-1935002 1260001,-450000 945001,-1980002 1192442,-2182561 922560,-967442 1642561,-1282442 2295002,-1462443 1035001,-247559 1395002,-922559 1665002,-1665001 360000,-810001 1035001,-1350001 1912561,-1642561 1507442,-562441 1665002,-1440001 2205002,-2025002 1440001,-1530001 2205002,-1530001 3105003,-1822443 517442,-270000 945001,-607559 922442,-1372560 -180000,-1170001 1327560,-1305001 2475002,-1665002 1102561,-382441 2115003,-922441 2947562,-1822442 90000,-517560 450001,-765001 810001,-1012560 1350001,-742442 1687443,-1462443 2205002,-2205003 450001,-742441 1125001,-1035001 1845002,-1282442 765001,-405000 1102442,-787560 1372442,-1192560 1957561,8145008 -20925020,24210024 -17145016,37687596 1440001,4140004 6975006,4860005 15120014,8527449 11745012,7020007 8415009,10530011 16740017,12982572 -13477454,1215001 -24772465,1057442 -30510030,-5625005"/>
  </g>
  <g id="g2873">
   <path id="path2875" class="fil2 str0" d="M58168758 44511186c652442,787559 585001,1935001 0,3127562"/>
  </g>
  <g id="g2877">
   <path id="path2879" class="fil2 str0" d="M60216201 46131187c1125001,1192560 1440001,2385002 922560,3577563"/>
  </g>
  <g id="g2881">
   <path id="path2883" class="fil2 str0" d="M64063764 49438749c540000,945001 720001,1890002 540000,2812444"/>
  </g>
  <g id="g2885">
   <path id="path2887" class="fil2 str0" d="M67686208 52228752c180000,1350001 112559,2520003 -225000,3465004"/>
  </g>
  <g id="g2889">
   <path id="path2891" class="fil2 str0" d="M70768770 55581196c405001,1192561 315001,2160003 -112559,2970003"/>
  </g>
  <g id="g2893">
   <path id="path2895" class="fil2 str0" d="M73468773 58033758c180000,1440001 0,3015003 -540000,4747445"/>
  </g>
  <g id="g2897">
   <path id="path2899" class="fil2 str0" d="M76371217 63906205c-247441,1260001 -855001,2227561 -1822443,2880002"/>
  </g>
  <g id="g2901">
   <path id="path2903" class="fil2 str0" d="M104361244 40461182c270001,517559 337560,1305001 -90000,2295002"/>
  </g>
  <g id="g2905">
   <path id="path2907" class="fil2 str0" d="M100963800 42711184c112441,1125001 -135000,2205002 -832560,3195003"/>
  </g>
  <g id="g2909">
   <path id="path2911" class="fil2 str0" d="M96486237 46086187c630000,517560 765000,1957561 -45000,3780004"/>
  </g>
  <g id="g2913">
   <path id="path2915" class="fil2 str0" d="M92616233 49393749c540000,675001 562559,2070002 -45000,3555004"/>
  </g>
  <g id="g2917">
   <path id="path2919" class="fil2 str0" d="M88701229 52746194c630001,855000 810001,2790002 67559,4635004"/>
  </g>
  <g id="g2921">
   <path id="path2923" class="fil2 str0" d="M85686226 56143756c607560,765001 922560,2655003 337559,4477445"/>
  </g>
  <g id="g2925">
   <path id="path2927" class="fil2 str0" d="M81883781 61206202c652442,315000 1980002,2070002 2452444,3847563"/>
  </g>
  <g id="g2929">
   <path id="path2931" class="fil2 str0" d="M80646221 68406209c45000,-1530001 112559,-2227443 -832442,-4207445"/>
  </g>
  <g id="g2933">
   <path id="path2935" class="fil2 str0" d="M78643778 69531210c67441,-1552442 67441,-855001 0,-2385002"/>
  </g>
  <g id="g2937">
   <path id="path2939" class="fil2 str0" d="M79363779 69103769c-135000,-1237561 1575001,-742560 45000,-3397563"/>
  </g>
  <g id="g2941">
   <path id="path2943" class="fil1" d="M71151212 87396228c337559,0 630000,-337442 630000,-787442 0,-427559 -292441,-765001 -630000,-765001 -315001,0 -607442,337442 -607442,765001 0,450000 292441,787442 607442,787442z"/>
  </g>
  <g id="g2945">
   <path id="path2947" class="fil2 str0" d="M66021207 84673784c1417560,922442 1327560,3015003 2902562,4590005 1867442,1170001 5287446,0 4117445,-382560 -4567446,-382441 -5220006,-3802445 -3195004,-4882446"/>
  </g>
  <g id="g2949">
   <path id="path2951" class="fil2 str0" d="M91986232 84651225c-1417442,900001 -1350001,2992562 -2902444,4567564 -1867560,1192442 -5220005,-67560 -4050004,-450001 4567446,-382559 4837446,-4117563 2812444,-5197564"/>
  </g>
  <g id="g2953">
   <path id="path2955" class="fil2 str0" d="M90996231 78441219c562560,7627566 -11295011,4275004 -6300006,10417569"/>
  </g>
  <g id="g2957">
   <path id="path2959" class="fil1" d="M84201225 102718802c-337442,1462442 -3442445,5062446 -3465004,6367447 -202441,1192560 -67441,1980002 1080001,2092561 990001,90000 1462561,-202559 1215001,-1260001 -157441,-517560 -157441,-922560 -517441,-1417561 -225000,-585000 -247559,-1350001 1080001,-3037443 900001,-1125002 1170001,-3667563 607442,-2745003z"/>
  </g>
  <g id="g2961">
   <path id="path2963" class="fil1" d="M74211215 102853802c337559,1462442 3465003,5062446 3487562,6367447 202441,1192560 67441,1980002 -1102560,2092561 -990001,90000 -1462442,-202559 -1215001,-1260001 157559,-495000 157559,-922560 517559,-1417560 225001,-585001 247442,-1350002 -1080001,-3037444 -900001,-1125001 -1170001,-3667563 -607559,-2745003z"/>
  </g>
  <g id="g2965">
   <path id="path2967" class="fil2 str1" d="M35106176 94911235c1102560,-292441 1957561,-945001 2070002,-1417442"/>
  </g>
  <g id="g2969">
   <path id="path2971" class="fil2 str1" d="M38458739 95316235c1012442,-472441 2115002,-1485001 2317443,-2160002"/>
  </g>
  <g id="g2973">
   <path id="path2975" class="fil2 str1" d="M41316182 95586236c630001,-405001 1462561,-1417443 1620002,-2205002"/>
  </g>
  <g id="g2977">
   <path id="path2979" class="fil2 str1" d="M43566185 95563795c855000,-472560 1845001,-1620002 2115002,-2475003"/>
  </g>
  <g id="g2981">
   <path id="path2983" class="fil2 str1" d="M47683748 95248794c225000,-540000 450000,-1440001 292441,-1980001"/>
  </g>
  <g id="g2985">
   <path id="path2987" class="fil2 str1" d="M49303749 94956235c315001,-630000 675001,-1777443 495001,-2205002"/>
  </g>
  <g id="g2989">
   <path id="path2991" class="fil2 str1" d="M51486192 94528794c472560,-742560 832560,-2115002 607560,-2677562"/>
  </g>
  <g id="g2993">
   <path id="path2995" class="fil2 str1" d="M53376194 93898793c495001,-607560 697560,-1935002 405001,-2565002"/>
  </g>
  <g id="g2997">
   <path id="path2999" class="fil2 str1" d="M55693756 92953792c427441,-697560 540000,-2002561 270000,-2497561"/>
  </g>
  <g id="g3001">
   <path id="path3003" class="fil2 str1" d="M57088757 92256232c472441,-517441 742442,-1575001 720001,-2115002"/>
  </g>
  <g id="g3005">
   <path id="path3007" class="fil2 str1" d="M58753759 91288791c472441,-382560 585000,-1237561 652441,-1800002"/>
  </g>
  <g id="g3009">
   <path id="path3011" class="fil2 str1" d="M61026202 89511230c472559,-427442 405000,-1170001 562559,-1935002"/>
  </g>
  <g id="g3013">
   <path id="path3015" class="fil2 str1" d="M122226262 94123793c-1125001,-270000 -1957443,-922560 -2092443,-1417560"/>
  </g>
  <g id="g3017">
   <path id="path3019" class="fil2 str1" d="M119233818 94416235c-990001,-495001 -2092561,-1485002 -2317561,-2160003"/>
  </g>
  <g id="g3021">
   <path id="path3023" class="fil2 str1" d="M116353815 94573794c-652559,-382560 -1462560,-1395002 -1620001,-2182561"/>
  </g>
  <g id="g3025">
   <path id="path3027" class="fil2 str1" d="M114148813 94573794c-855001,-472560 -1867561,-1620002 -2115002,-2475003"/>
  </g>
  <g id="g3029">
   <path id="path3031" class="fil2 str1" d="M110931251 94461235c-225000,-540001 -450001,-1440002 -292441,-1980002"/>
  </g>
  <g id="g3033">
   <path id="path3035" class="fil2 str1" d="M108591249 94303794c-315001,-630001 -697442,-1777561 -517442,-2205003"/>
  </g>
  <g id="g3037">
   <path id="path3039" class="fil2 str1" d="M106408805 93876234c-472559,-742442 -855000,-2115002 -630000,-2677444"/>
  </g>
  <g id="g3041">
   <path id="path3043" class="fil2 str1" d="M104518804 93696234c-495001,-630001 -697560,-1957443 -405001,-2565003"/>
  </g>
  <g id="g3045">
   <path id="path3047" class="fil2 str1" d="M102358801 92953792c-427559,-697560 -540000,-2002561 -270000,-2520002"/>
  </g>
  <g id="g3049">
   <path id="path3051" class="fil2 str1" d="M100626241 92481233c-472442,-540001 -742442,-1575002 -742442,-2115002"/>
  </g>
  <g id="g3053">
   <path id="path3055" class="fil2 str1" d="M98871239 91626232c-472441,-360000 -585001,-1237442 -652442,-1800002"/>
  </g>
  <g id="g3057">
   <path id="path3059" class="fil2 str1" d="M97273796 90546231c-472559,-427442 -382559,-1170001 -562559,-1935002"/>
  </g>
  <g id="g3061">
   <path id="path3063" class="fil1" d="M86091226 87396228c337560,0 607560,-337442 607560,-787442 0,-427559 -270000,-765001 -607560,-765001 -315000,0 -607441,337442 -607441,765001 0,450000 292441,787442 607441,787442z"/>
  </g>
  <g id="g3065">
   <path id="path3067" class="fil1" d="M13708714 92818792c202441,-45000 405001,-90000 630001,-157559 2992444,45000 3105003,2722562 2835003,6052565 -202560,3645003 -607560,7987449 292441,9787450 742560,1237561 1080001,2587562 1125001,4027563l0 900001c-67441,1822443 -540001,3780004 -1192442,5805006 -742560,-3712563 -2655003,-6547565 -3690004,-8527567l0 -8167449c90000,-517560 157441,-1012560 225000,-1462561 517442,-1710002 337442,-2317443 -225000,-2497443l0 -1057560c517442,22559 900001,157559 1057442,450000 472560,1147560 90000,4432564 -517441,7200007 -585001,2767562 90000,4770005 1237442,6682566 427559,607441 742560,1620001 1147560,2250002 1327442,2542443 1440002,135000 630001,-2655003 -1237561,-3555003 -1530002,-5670005 -1462561,-7245007 -180000,-2295002 2272562,-11092570 -2092443,-10597569l0 -787442z"/>
  </g>
  <g id="g3069">
   <path id="path3071" class="fil1" d="M9208710 92773792c270000,-900001 1755002,607442 4500004,45000l0 787442c-67559,0 -135000,22559 -202559,22559 -1260001,832442 -3015003,-202559 -3442444,202441 -877560,832560 -247560,3577563 472441,3712563 922560,90000 2227561,-90000 3172562,-22559l0 1057560c-337559,-90000 -810001,-45000 -1350001,22441 -832560,22559 -1170001,0 -2002561,22559 -1125001,-67559 -1755002,-2430003 -1485002,-3352563 0,-1530001 -157441,-967441 337560,-2497443l0 0z"/>
  </g>
  <g id="g3073">
   <path id="path3075" class="fil1" d="M13708714 110706251c-427559,-787442 -697559,-1417443 -742560,-1935002 -292441,-810001 292560,-3757445 742560,-6232447l0 8167449z"/>
  </g>
  <g id="g3077">
   <path id="path3079" class="fil1" d="M80173780 144298843c112441,-22559 225000,-45000 360000,-67559 2047443,-247442 3960004,-1012442 6435006,-45000 990001,630000 1440002,1485001 1485002,2520002l0 360000c-67559,1620002 -1012560,3622563 -2407562,5850006 -2812443,4567564 -3397444,4432564 -2970003,2205002 2385003,-5872446 1372561,-7402448 -1777442,-6075006 -337560,112560 -720001,202560 -1125001,270001l0 -1282443c1125001,-180000 2160002,-382559 3330003,-562559 3330003,-787442 832442,5670005 1462442,5490005 1597561,-3150003 3802563,-6817447 517560,-7987449 -2137561,-202559 -3915004,22441 -5310005,247442l0 -922442z"/>
  </g>
  <g id="g3081">
   <path id="path3083" class="fil1" d="M73986215 140721280c3847562,112559 67559,4815005 6187565,3577563l0 922442c-1485002,247559 -2587562,495000 -3285004,337559 -810000,-427560 -1192560,-720001 -1507560,-2565003 -427441,-1080001 -1102442,-1552560 -1755002,-1552560 -1372442,517559 607560,1462560 360001,2992562 -315001,1777443 -652442,3577444 720000,4072445 2362562,-45000 4005004,-225000 5467565,-472442l0 1282443c-1192561,247559 -2497562,382559 -3847563,495000 -2452444,247559 -2835003,-562441 -3330003,-1575001 -630001,-1282443 652559,-2970003 -67441,-4252446 -405001,-742559 -675001,-1417560 -720001,-1957561l0 -315000c67441,-652441 585000,-1035001 1777443,-990001z"/>
  </g>
  <g id="g3085">
   <path id="path3087" class="fil1" d="M119841260 19018719c1012560,-22559 1845001,0 2790002,202442 270001,247559 382560,562559 427560,945001l0 450000c-67559,1080001 -607560,2700003 -1192560,5175005 -1620002,2722562 -1800002,1485002 -2025002,-180000l0 -3082444c180000,270000 247559,720001 607559,2115002 22441,1980002 630001,1305001 922442,-112559 67559,-1935002 1777561,-3465004 675001,-4365004 -157441,-202442 -990001,-472442 -2205002,-427442l0 -720001z"/>
  </g>
  <g id="g3089">
   <path id="path3091" class="fil1" d="M117298816 17601159c495001,-315000 630001,1215001 1912443,1440001 225000,0 427559,0 630001,-22441l0 720001c-112441,0 -225001,22441 -337442,22441 -1147560,90000 -2182561,-1485001 -2182561,-1080001 -157441,765001 22559,1710002 405001,2745003 135000,607559 990001,742560 1890001,877560 90000,67441 157560,135000 225001,225000l0 3082444c-202442,-1507443 -450001,-3397444 -1867443,-2992444 -832560,22441 -1260001,-1395001 -1305001,-2722562l0 -562441c22441,-900001 247441,-1665002 630000,-1732561z"/>
  </g>
  <g id="g3093">
   <path id="path3095" class="fil1" d="M146908845 92278792c1192442,-22560 2340003,22441 3397445,247441 292559,270000 427559,765000 450000,1417560l0 765001c-90000,1912443 -765001,4792446 -1485001,7785008 -180001,1035001 -360001,2070002 -562442,3105003 -742560,3285003 -1057560,1822442 -1305001,-292560 112441,-2992444 495000,-6097447 -495001,-7695007l0 -1350002c67441,0 135000,22559 202441,22559 427560,337442 900001,2047443 1170002,4365005 157559,2407443 405000,1890002 697559,45000 90000,-2295002 1732443,-5872565 450001,-6952566 -202559,-225000 -1057560,-652442 -2520003,-585001l0 -877441z"/>
  </g>
  <g id="g3097">
   <path id="path3099" class="fil1" d="M144006283 90613790c585001,-382560 382560,1440001 1890002,1710002 337560,-22559 675001,-22559 1012560,-45000l0 877441c-90000,0 -202559,0 -315000,0 -1350001,112560 -2610003,-1260001 -2610003,-787441 -202559,900001 67441,1530001 517442,2767443 157559,675001 1372560,945001 2407561,1125001l0 1350002c-405000,-675001 -1080001,-1080001 -2115002,-1080001 -990001,0 -1485001,-1642443 -1552560,-3195003l0 -697442c45000,-1057560 315000,-1935002 765000,-2025002z"/>
  </g>
  <g id="g3101">
   <path id="path3103" class="fil1" d="M36096177 22506164c2137561,-405001 4342564,-922442 5940006,-630001 1057560,225000 1395001,2025002 1440001,4860005l0 990001c0,562560 -22440,1170001 -45000,1800002 -247441,3105003 -922441,3172562 -1845001,-315001 -427442,-2857443 -1215002,-4230004 -5490006,-3330003l0 -1080001c1102560,-180000 2295002,-292441 3645004,-225000 1552560,270000 922560,922560 2880003,3892563 675000,427441 270000,-4477564 -922442,-5400006 -45000,-517559 -3465004,0 -5602565,270001l0 -832560z"/>
  </g>
  <g id="g3105">
   <path id="path3107" class="fil1" d="M29166170 21291163c967560,-247442 4635005,1575001 6705007,1260001 90000,-22441 157559,-22441 225000,-45000l0 832560c-225000,22441 -472441,45000 -675000,67441 -1822443,67559 -3712445,-90000 -5625006,-765001 -652442,-225000 -630001,225000 -292441,1012560 472441,967442 720001,1552443 1485001,2992444 450001,1125001 -45000,4072563 -922560,5715006 -1327442,1755001 1575002,1687560 1777561,157559 270000,-2025002 315000,-3555004 202441,-4950005 315001,-1350001 967560,-1687561 1980002,-2317561 675001,-180001 1372561,-337442 2070002,-450001l0 1080001c-315000,67559 -675000,157559 -1035001,247559 -3960004,-157559 -1552442,6570007 -2340002,6862448 -1507443,1530002 -2790003,1890002 -3870004,1057560 -472441,-697559 -765001,-1350001 472560,-2385002 1417442,-2047561 742441,-1890002 1057442,-4117563 382559,-2002443 -3487445,-4320004 -1215002,-6255006z"/>
  </g>
  <g id="g3109">
   <path id="path3111" class="fil2 str1" d="M78441219 122136262c-1012442,3015003 787560,4140004 67559,6682565"/>
  </g>
  <g id="g3113">
   <path id="path3115" class="fil2 str1" d="M80578780 122248821c1012442,3037444 -765001,4162445 -67559,6705007"/>
  </g>
  <g id="g3117">
   <path id="path3119" class="fil2 str1" d="M79476220 124611264c-585001,1732561 585000,3577563 0,5197564"/>
  </g>
 </g>
</svg>
